<svg width="55" height="55" viewBox="0 0 55 55" fill="none" xmlns="http://www.w3.org/2000/svg">
<circle cx="27.5" cy="27.5" r="27.5" fill="#092B53"/>
<path d="M38.7144 14.1428H37.6429V13.1015C37.6429 12.5249 37.1996 12.03 36.6231 12.0012C36.4782 11.9943 36.3334 12.0168 36.1975 12.0674C36.0616 12.118 35.9374 12.1957 35.8324 12.2958C35.7274 12.3958 35.6438 12.5161 35.5867 12.6495C35.5295 12.7828 35.5001 12.9263 35.5001 13.0713V14.1428H20.5V13.1015C20.5 12.5249 20.0567 12.03 19.4802 12.0012C19.3353 11.9943 19.1905 12.0168 19.0546 12.0674C18.9187 12.118 18.7945 12.1957 18.6895 12.2958C18.5845 12.3958 18.5009 12.5161 18.4438 12.6495C18.3866 12.7828 18.3572 12.9263 18.3572 13.0713V14.1428H17.2857C16.1491 14.1428 15.059 14.5943 14.2553 15.398C13.4515 16.2018 13 17.2918 13 18.4285V37.7143C13 38.8509 13.4515 39.941 14.2553 40.7447C15.059 41.5485 16.1491 42 17.2857 42H38.7144C39.851 42 40.9411 41.5485 41.7448 40.7447C42.5486 39.941 43.0001 38.8509 43.0001 37.7143V18.4285C43.0001 17.2918 42.5486 16.2018 41.7448 15.398C40.9411 14.5943 39.851 14.1428 38.7144 14.1428ZM19.9643 37.7143C19.6464 37.7143 19.3357 37.62 19.0714 37.4434C18.8071 37.2668 18.6011 37.0158 18.4795 36.7222C18.3579 36.4285 18.326 36.1053 18.388 35.7936C18.4501 35.4818 18.6031 35.1955 18.8279 34.9707C19.0526 34.7459 19.339 34.5929 19.6508 34.5309C19.9625 34.4688 20.2857 34.5007 20.5793 34.6223C20.873 34.744 21.124 34.9499 21.3006 35.2142C21.4772 35.4785 21.5715 35.7893 21.5715 36.1071C21.5715 36.5334 21.4021 36.9422 21.1007 37.2435C20.7993 37.5449 20.3905 37.7143 19.9643 37.7143ZM19.9643 32.3571C19.6464 32.3571 19.3357 32.2629 19.0714 32.0863C18.8071 31.9097 18.6011 31.6587 18.4795 31.365C18.3579 31.0713 18.326 30.7482 18.388 30.4364C18.4501 30.1247 18.6031 29.8383 18.8279 29.6135C19.0526 29.3888 19.339 29.2357 19.6508 29.1737C19.9625 29.1117 20.2857 29.1435 20.5793 29.2652C20.873 29.3868 21.124 29.5928 21.3006 29.8571C21.4772 30.1214 21.5715 30.4321 21.5715 30.75C21.5715 31.1762 21.4021 31.585 21.1007 31.8864C20.7993 32.1878 20.3905 32.3571 19.9643 32.3571ZM25.3215 37.7143C25.0036 37.7143 24.6929 37.62 24.4286 37.4434C24.1643 37.2668 23.9583 37.0158 23.8367 36.7222C23.715 36.4285 23.6832 36.1053 23.7452 35.7936C23.8072 35.4818 23.9603 35.1955 24.185 34.9707C24.4098 34.7459 24.6962 34.5929 25.0079 34.5309C25.3197 34.4688 25.6428 34.5007 25.9365 34.6223C26.2302 34.744 26.4812 34.9499 26.6578 35.2142C26.8344 35.4785 26.9286 35.7893 26.9286 36.1071C26.9286 36.5334 26.7593 36.9422 26.4579 37.2435C26.1565 37.5449 25.7477 37.7143 25.3215 37.7143ZM25.3215 32.3571C25.0036 32.3571 24.6929 32.2629 24.4286 32.0863C24.1643 31.9097 23.9583 31.6587 23.8367 31.365C23.715 31.0713 23.6832 30.7482 23.7452 30.4364C23.8072 30.1247 23.9603 29.8383 24.185 29.6135C24.4098 29.3888 24.6962 29.2357 25.0079 29.1737C25.3197 29.1117 25.6428 29.1435 25.9365 29.2652C26.2302 29.3868 26.4812 29.5928 26.6578 29.8571C26.8344 30.1214 26.9286 30.4321 26.9286 30.75C26.9286 31.1762 26.7593 31.585 26.4579 31.8864C26.1565 32.1878 25.7477 32.3571 25.3215 32.3571ZM30.6786 37.7143C30.3608 37.7143 30.05 37.62 29.7857 37.4434C29.5214 37.2668 29.3155 37.0158 29.1938 36.7222C29.0722 36.4285 29.0403 36.1053 29.1024 35.7936C29.1644 35.4818 29.3174 35.1955 29.5422 34.9707C29.767 34.7459 30.0533 34.5929 30.3651 34.5309C30.6768 34.4688 31 34.5007 31.2937 34.6223C31.5873 34.744 31.8383 34.9499 32.0149 35.2142C32.1915 35.4785 32.2858 35.7893 32.2858 36.1071C32.2858 36.5334 32.1164 36.9422 31.8151 37.2435C31.5137 37.5449 31.1049 37.7143 30.6786 37.7143ZM30.6786 32.3571C30.3608 32.3571 30.05 32.2629 29.7857 32.0863C29.5214 31.9097 29.3155 31.6587 29.1938 31.365C29.0722 31.0713 29.0403 30.7482 29.1024 30.4364C29.1644 30.1247 29.3174 29.8383 29.5422 29.6135C29.767 29.3888 30.0533 29.2357 30.3651 29.1737C30.6768 29.1117 31 29.1435 31.2937 29.2652C31.5873 29.3868 31.8383 29.5928 32.0149 29.8571C32.1915 30.1214 32.2858 30.4321 32.2858 30.75C32.2858 31.1762 32.1164 31.585 31.8151 31.8864C31.5137 32.1878 31.1049 32.3571 30.6786 32.3571ZM30.6786 27C30.3608 27 30.05 26.9057 29.7857 26.7291C29.5214 26.5525 29.3155 26.3015 29.1938 26.0078C29.0722 25.7142 29.0403 25.391 29.1024 25.0793C29.1644 24.7675 29.3174 24.4811 29.5422 24.2564C29.767 24.0316 30.0533 23.8785 30.3651 23.8165C30.6768 23.7545 31 23.7864 31.2937 23.908C31.5873 24.0296 31.8383 24.2356 32.0149 24.4999C32.1915 24.7642 32.2858 25.0749 32.2858 25.3928C32.2858 25.819 32.1164 26.2278 31.8151 26.5292C31.5137 26.8306 31.1049 27 30.6786 27ZM36.0358 32.3571C35.7179 32.3571 35.4072 32.2629 35.1429 32.0863C34.8786 31.9097 34.6726 31.6587 34.551 31.365C34.4293 31.0713 34.3975 30.7482 34.4595 30.4364C34.5215 30.1247 34.6746 29.8383 34.8994 29.6135C35.1241 29.3888 35.4105 29.2357 35.7222 29.1737C36.034 29.1117 36.3571 29.1435 36.6508 29.2652C36.9445 29.3868 37.1955 29.5928 37.3721 29.8571C37.5487 30.1214 37.6429 30.4321 37.6429 30.75C37.6429 31.1762 37.4736 31.585 37.1722 31.8864C36.8708 32.1878 36.462 32.3571 36.0358 32.3571V32.3571ZM36.0358 27C35.7179 27 35.4072 26.9057 35.1429 26.7291C34.8786 26.5525 34.6726 26.3015 34.551 26.0078C34.4293 25.7142 34.3975 25.391 34.4595 25.0793C34.5215 24.7675 34.6746 24.4811 34.8994 24.2564C35.1241 24.0316 35.4105 23.8785 35.7222 23.8165C36.034 23.7545 36.3571 23.7864 36.6508 23.908C36.9445 24.0296 37.1955 24.2356 37.3721 24.4999C37.5487 24.7642 37.6429 25.0749 37.6429 25.3928C37.6429 25.819 37.4736 26.2278 37.1722 26.5292C36.8708 26.8306 36.462 27 36.0358 27V27ZM40.8572 18.9642V20.0356C40.8572 20.1777 40.8008 20.314 40.7003 20.4145C40.5999 20.5149 40.4636 20.5714 40.3215 20.5714H15.6786C15.5365 20.5714 15.4002 20.5149 15.2998 20.4145C15.1993 20.314 15.1429 20.1777 15.1429 20.0356V18.4285C15.1445 17.8607 15.3707 17.3165 15.7723 16.915C16.1738 16.5135 16.7179 16.2872 17.2857 16.2856H38.7144C39.2822 16.2872 39.8263 16.5135 40.2278 16.915C40.6294 17.3165 40.8556 17.8607 40.8572 18.4285V18.9642Z" fill="white"/>
</svg>
