<svg width="23" height="25" viewBox="0 0 23 25" fill="none" xmlns="http://www.w3.org/2000/svg">
<path d="M5.51392 9.57463L4.91816 8.5L7.30122 7.06716L5.51392 4.08209L3.13086 5.63433L2.41594 4.5597L5.87138 2.52985L8.96937 7.42537" fill="#132A3E"/>
<path d="M11.829 24.5C10.7567 24.5 9.56514 24.1418 8.3736 23.4254C6.348 22.2313 4.32239 20.2015 2.7734 17.694C-0.801203 12.0821 -0.920357 6.70896 2.41594 4.5597L3.0117 5.63433C0.271177 7.30597 0.509484 12.0821 3.60747 17.097C5.03731 19.4851 6.94376 21.3955 8.73106 22.4701C10.0417 23.1866 11.9482 23.7836 13.6163 22.8284L15.8803 21.3955L14.3313 18.4104L11.9482 19.8433C10.5184 20.6791 8.61191 20.2015 7.77784 18.8881L3.96493 12.6791C3.13086 11.2463 3.48832 9.45522 4.91816 8.5L5.51392 9.57463C4.67985 10.0522 4.44154 11.1269 4.91816 11.9627L8.73106 18.1716C9.20768 19.0075 10.5184 19.2463 11.3524 18.7687L14.6887 16.7388L17.7867 21.6343L14.4504 23.6642C13.6163 24.2612 12.7823 24.5 11.829 24.5ZM16.3569 13.9925L15.2845 13.6343C15.7611 12.3209 15.5228 11.0075 14.8079 9.93284C14.093 8.73881 12.7823 8.02239 11.4716 7.90298L11.5907 6.70895C13.378 6.82836 14.927 7.78358 15.8803 9.21642C16.7143 10.6493 16.9526 12.4403 16.3569 13.9925Z" fill="#132A3E"/>
<path d="M19.6932 14.709L18.5016 14.3507C19.0974 12.2015 18.7399 9.93284 17.5484 8.02239C16.3569 6.11194 14.3313 4.91791 11.9482 4.5597L12.0674 3.36567C14.6887 3.72388 17.0718 5.15672 18.5016 7.30597C19.9315 9.57463 20.4081 12.2015 19.6932 14.709Z" fill="#132A3E"/>
<path d="M22.5528 15.4254L21.3613 15.0672C22.1954 12.0821 21.5996 8.97761 20.0506 6.47015C18.3825 3.84328 15.642 2.17164 12.544 1.69403L12.6631 0.5C16.1186 0.977612 19.0974 2.88806 21.0039 5.75373C22.9103 8.6194 23.5061 12.0821 22.5528 15.4254Z" fill="#132A3E"/>
</svg>
