<svg width="55" height="55" viewBox="0 0 55 55" fill="none" xmlns="http://www.w3.org/2000/svg">
<circle cx="27.5" cy="27.5" r="27.5" fill="#092B53"/>
<circle cx="27.5" cy="27.5" r="27.5" fill="#092B53"/>
<path d="M27.3365 34.8499C27.3365 36.2339 27.7694 37.5732 28.5602 38.6869H15.1277C14.0738 38.6869 13.3797 38.5132 12.9157 38.2798C12.4739 38.0576 12.1704 37.747 11.9413 37.3243C11.4538 36.425 11.3067 35.0568 11.2919 33.1057H27.3365V34.8499Z" fill="white"/>
<path fill-rule="evenodd" clip-rule="evenodd" d="M28.7318 30.3152H19.6624V15.1305L19.736 15.1673C20.1288 15.3637 20.5912 15.3637 20.984 15.1673L22.4524 14.4331L23.9171 15.1668C24.308 15.3627 24.7682 15.3639 25.1603 15.1702L26.6525 14.4326L28.1029 15.1649C28.4979 15.3642 28.9639 15.3645 29.3591 15.1657L30.8124 14.4342L32.2743 15.1668C32.6658 15.3629 33.1267 15.3639 33.519 15.1695L35.008 14.4314L36.4804 15.1674C36.8732 15.3637 37.3356 15.3637 37.7284 15.1672L37.8012 15.1308L37.8013 34.8499C37.8013 35.8675 37.397 36.8435 36.6774 37.5631C35.9578 38.2827 34.9818 38.6869 33.9642 38.6869C32.9465 38.6869 31.9706 38.2827 31.251 37.5631C30.5314 36.8435 30.1271 35.8675 30.1271 34.8499V31.7104C30.1271 30.9398 29.5024 30.3152 28.7318 30.3152ZM26.6389 22.9882C25.8683 22.9882 25.2436 23.6129 25.2436 24.3835C25.2436 25.1542 25.8683 25.7788 26.6389 25.7788H35.0107C35.7813 25.7788 36.406 25.1542 36.406 24.3835C36.406 23.6129 35.7813 22.9882 35.0107 22.9882H26.6389ZM21.0576 19.1521C21.0576 18.3815 21.6823 17.7568 22.4529 17.7568H35.0105C35.7811 17.7568 36.4058 18.3815 36.4058 19.1521C36.4058 19.9227 35.7811 20.5474 35.0105 20.5474H22.4529C21.6823 20.5474 21.0576 19.9227 21.0576 19.1521Z" fill="white"/>
</svg>
