<svg width="75" height="75" viewBox="0 0 75 75" fill="none" xmlns="http://www.w3.org/2000/svg">
<circle cx="37.5" cy="37.5" r="37.5" fill="#F1EDEE"/>
<path fill-rule="evenodd" clip-rule="evenodd" d="M37.4623 23.9686C40.6658 23.9686 43.6618 25.1661 45.8984 27.3409C47.004 28.4151 47.8795 29.6915 48.4741 31.0961C49.0688 32.5008 49.3709 34.006 49.363 35.5248C49.363 38.9634 48.1045 41.9528 45.7229 44.1608L45.3559 44.499C44.0328 45.7152 42.2226 47.3791 42.2226 48.8143V50.5477C42.2226 50.8542 42.0972 51.1481 41.874 51.3649C41.6508 51.5816 41.3481 51.7033 41.0325 51.7033H33.8921C33.5764 51.7033 33.2738 51.5816 33.0506 51.3649C32.8274 51.1481 32.702 50.8542 32.702 50.5477V48.8143C32.702 47.3438 30.87 45.6775 29.5305 44.4612L29.2062 44.1658C26.8907 42.0417 25.5616 38.8919 25.5616 35.5248C25.5578 34.0062 25.8631 32.5018 26.4599 31.0981C27.0566 29.6945 27.9331 28.4191 29.0389 27.3453C30.1447 26.2715 31.4581 25.4204 32.9037 24.8409C34.3492 24.2615 35.8984 23.965 37.4623 23.9686ZM41.6276 39.0866C41.6276 38.1242 41.3261 37.3261 40.7229 36.6924C40.4156 36.3638 40.0856 36.0997 39.7328 35.9002C39.38 35.7007 38.828 35.4307 38.0769 35.0904L37.4624 34.8087C37.064 34.6209 36.7568 34.4625 36.5405 34.3334C36.3243 34.1925 36.165 34.0223 36.0625 33.8228C35.9715 33.6585 35.926 33.4414 35.926 33.1714C35.926 32.8076 36.0341 32.5142 36.2503 32.2912C36.3869 32.1269 36.5576 31.9978 36.7625 31.9039C36.9673 31.81 37.1835 31.7631 37.4111 31.7631C37.9346 31.7631 38.3728 32.0271 38.7256 32.5553C38.8735 32.8604 38.9475 33.1597 38.9475 33.4531L41.4057 33.4355C41.3943 33.0013 41.3261 32.6081 41.2009 32.256C41.0871 31.8922 40.9164 31.5342 40.6887 31.1821C40.1994 30.4545 39.5109 29.9498 38.6232 29.6681V28.0133H36.3015V29.6329C35.6415 29.7972 35.0724 30.0965 34.5945 30.5307C34.253 30.8594 33.9799 31.2701 33.7751 31.7631C33.5702 32.2443 33.4678 32.7255 33.4678 33.2067C33.4678 33.547 33.519 33.8991 33.6214 34.2629C33.7352 34.615 33.8775 34.9143 34.0482 35.1608C34.4237 35.7359 34.9814 36.2288 35.7211 36.6396C35.9601 36.7921 36.3926 36.9917 37.0185 37.2381C37.7241 37.5198 38.2362 37.7663 38.5549 37.9775C38.7939 38.1418 38.9532 38.3003 39.0329 38.4528C39.1239 38.6054 39.1694 38.7932 39.1694 39.0162C39.1694 39.2509 39.1239 39.4563 39.0329 39.6324C38.9532 39.7967 38.8223 39.9434 38.6402 40.0725C38.4809 40.1898 38.2874 40.2779 38.0598 40.3365C37.8436 40.3952 37.6331 40.4246 37.4282 40.4246C37.1209 40.4246 36.8364 40.3424 36.5747 40.1781C36.3129 40.0021 36.091 39.7673 35.9089 39.4739C35.8292 39.3566 35.7667 39.204 35.7211 39.0162C35.6756 38.8167 35.6528 38.6524 35.6528 38.5233H33.2971C33.2971 39.3331 33.5019 40.0725 33.9116 40.7415C34.162 41.1874 34.492 41.5689 34.9017 41.8858C35.3228 42.1909 35.7894 42.408 36.3015 42.5371V44.192H38.6232V42.5723C39.0898 42.4784 39.4824 42.3435 39.8011 42.1674C40.3587 41.874 40.8026 41.4398 41.1326 40.8647C41.4626 40.2779 41.6276 39.6852 41.6276 39.0866Z" fill="#092B53"/>
<path d="M41.0325 52.8588H33.8921C33.5765 52.8588 33.2738 52.9806 33.0506 53.1973C32.8274 53.414 32.702 53.7079 32.702 54.0144C32.702 54.3209 32.8274 54.6148 33.0506 54.8315C33.2738 55.0483 33.5765 55.17 33.8921 55.17H41.0325C41.3482 55.17 41.6509 55.0483 41.874 54.8315C42.0972 54.6148 42.2226 54.3209 42.2226 54.0144C42.2226 53.7079 42.0972 53.414 41.874 53.1973C41.6509 52.9806 41.3482 52.8588 41.0325 52.8588Z" fill="#092B53"/>
<path d="M39.8425 56.3251H35.0823C34.7666 56.3251 34.4639 56.4469 34.2407 56.6636C34.0176 56.8803 33.8922 57.1743 33.8922 57.4808C33.8922 57.7872 34.0176 58.0812 34.2407 58.2979C34.4639 58.5146 34.7666 58.6364 35.0823 58.6364H39.8425C40.1582 58.6364 40.4609 58.5146 40.6841 58.2979C40.9072 58.0812 41.0326 57.7872 41.0326 57.4808C41.0326 57.1743 40.9072 56.8803 40.6841 56.6636C40.4609 56.4469 40.1582 56.3251 39.8425 56.3251Z" fill="#092B53"/>
<path fill-rule="evenodd" clip-rule="evenodd" d="M37.1897 15C37.5184 15 37.7848 15.388 37.7848 15.8667V21.067C37.7848 21.5457 37.5184 21.9337 37.1897 21.9337C36.8611 21.9337 36.5947 21.5457 36.5947 21.067V15.8667C36.5947 15.388 36.8611 15 37.1897 15Z" fill="#092B53"/>
<path fill-rule="evenodd" clip-rule="evenodd" d="M52.5538 21.4853C52.7848 21.7057 52.6912 22.1524 52.3447 22.483L48.5809 26.0746C48.2344 26.4052 47.7663 26.4945 47.5354 26.2741C47.3044 26.0538 47.398 25.6071 47.7445 25.2765L51.5083 21.6849C51.8548 21.3543 52.3229 21.2649 52.5538 21.4853Z" fill="#092B53"/>
<path fill-rule="evenodd" clip-rule="evenodd" d="M22.079 21.4853C21.848 21.7057 21.9416 22.1524 22.2881 22.483L26.0519 26.0746C26.3984 26.4052 26.8665 26.4945 27.0975 26.2741C27.3284 26.0538 27.2348 25.6071 26.8883 25.2765L23.1245 21.6849C22.778 21.3543 22.3099 21.2649 22.079 21.4853Z" fill="#092B53"/>
<path fill-rule="evenodd" clip-rule="evenodd" d="M51.3707 51.5068C51.6017 51.2864 51.5081 50.8398 51.1616 50.5092L47.3978 46.9176C47.0513 46.587 46.5832 46.4976 46.3523 46.718C46.1213 46.9384 46.2149 47.3851 46.5614 47.7157L50.3252 51.3073C50.6717 51.6379 51.1398 51.7272 51.3707 51.5068Z" fill="#092B53"/>
<path fill-rule="evenodd" clip-rule="evenodd" d="M23.2621 51.5068C23.0311 51.2864 23.1247 50.8398 23.4712 50.5092L27.235 46.9176C27.5815 46.587 28.0496 46.4976 28.2806 46.718C28.5115 46.9384 28.4179 47.3851 28.0715 47.7157L24.3076 51.3073C23.9611 51.6379 23.4931 51.7272 23.2621 51.5068Z" fill="#092B53"/>
<path fill-rule="evenodd" clip-rule="evenodd" d="M58.0162 37.5346C58.0162 37.8537 57.6166 38.1124 57.1236 38.1124H51.7682C51.2753 38.1124 50.8757 37.8537 50.8757 37.5346C50.8757 37.2155 51.2753 36.9568 51.7682 36.9568H57.1236C57.6166 36.9568 58.0162 37.2155 58.0162 37.5346Z" fill="#092B53"/>
<path fill-rule="evenodd" clip-rule="evenodd" d="M16.3633 37.5346C16.3633 37.8537 16.7629 38.1124 17.2558 38.1124H22.6112C23.1042 38.1124 23.5038 37.8537 23.5038 37.5346C23.5038 37.2155 23.1042 36.9568 22.6112 36.9568H17.2558C16.7629 36.9568 16.3633 37.2155 16.3633 37.5346Z" fill="#092B53"/>
</svg>
