<svg width="55" height="55" viewBox="0 0 55 55" fill="none" xmlns="http://www.w3.org/2000/svg">
<circle cx="27.5" cy="27.5" r="27.5" fill="#092B53"/>
<path fill-rule="evenodd" clip-rule="evenodd" d="M27.4726 17.577C29.8219 17.577 32.0189 18.4552 33.6591 20.05C34.4699 20.8377 35.1119 21.7737 35.548 22.8038C35.984 23.8339 36.2056 24.9378 36.1998 26.0515C36.1998 28.5732 35.2769 30.7654 33.5304 32.3846L33.2612 32.6326C32.291 33.5245 30.9635 34.7447 30.9635 35.7971V37.0683C30.9635 37.2931 30.8715 37.5086 30.7079 37.6676C30.5442 37.8265 30.3222 37.9158 30.0908 37.9158H24.8544C24.623 37.9158 24.401 37.8265 24.2373 37.6676C24.0737 37.5086 23.9817 37.2931 23.9817 37.0683V35.7971C23.9817 34.7188 22.6383 33.4969 21.6559 32.6049L21.4181 32.3883C19.7201 30.8306 18.7454 28.5207 18.7454 26.0515C18.7427 24.9379 18.9665 23.8347 19.4042 22.8053C19.8418 21.7759 20.4845 20.8407 21.2954 20.0532C22.1064 19.2657 23.0696 18.6416 24.1296 18.2167C25.1897 17.7917 26.3258 17.5743 27.4726 17.577ZM30.5272 28.6635C30.5272 27.9578 30.306 27.3725 29.8637 26.9077C29.6384 26.6668 29.3963 26.4731 29.1376 26.3268C28.8789 26.1805 28.4741 25.9825 27.9233 25.7329L27.4727 25.5264C27.1806 25.3887 26.9552 25.2725 26.7966 25.1778C26.6381 25.0745 26.5212 24.9497 26.4461 24.8034C26.3794 24.6829 26.346 24.5237 26.346 24.3257C26.346 24.0589 26.4253 23.8438 26.5838 23.6802C26.684 23.5597 26.8092 23.4651 26.9594 23.3962C27.1096 23.3273 27.2682 23.2929 27.4351 23.2929C27.819 23.2929 28.1403 23.4866 28.399 23.8739C28.5075 24.0976 28.5618 24.3171 28.5618 24.5323L30.3645 24.5194C30.3561 24.2009 30.306 23.9126 30.2142 23.6544C30.1308 23.3876 30.0056 23.1251 29.8387 22.8669C29.4798 22.3333 28.9749 21.9632 28.3239 21.7566V20.5431H26.6214V21.7308C26.1373 21.8513 25.72 22.0708 25.3695 22.3892C25.1192 22.6302 24.9189 22.9314 24.7686 23.2929C24.6184 23.6458 24.5433 23.9987 24.5433 24.3515C24.5433 24.6011 24.5809 24.8593 24.656 25.1262C24.7394 25.3844 24.8437 25.6038 24.9689 25.7846C25.2443 26.2063 25.6533 26.5678 26.1958 26.869C26.371 26.9809 26.6882 27.1272 27.1472 27.308C27.6646 27.5145 28.0402 27.6953 28.2738 27.8502C28.4491 27.9707 28.5659 28.0869 28.6244 28.1988C28.6911 28.3106 28.7245 28.4483 28.7245 28.6119C28.7245 28.784 28.6911 28.9346 28.6244 29.0637C28.5659 29.1842 28.47 29.2918 28.3364 29.3865C28.2196 29.4726 28.0777 29.5371 27.9108 29.5801C27.7522 29.6232 27.5978 29.6447 27.4476 29.6447C27.2223 29.6447 27.0136 29.5844 26.8217 29.4639C26.6297 29.3348 26.467 29.1627 26.3335 28.9475C26.275 28.8615 26.2291 28.7496 26.1958 28.6119C26.1624 28.4656 26.1457 28.3451 26.1457 28.2504H24.4181C24.4181 28.8443 24.5683 29.3865 24.8688 29.8771C25.0524 30.2041 25.2944 30.4838 25.5949 30.7162C25.9037 30.94 26.2458 31.0992 26.6214 31.1939V32.4074H28.3239V31.2197C28.6661 31.1509 28.954 31.0519 29.1877 30.9228C29.5966 30.7076 29.9221 30.3892 30.1642 29.9674C30.4062 29.5371 30.5272 29.1025 30.5272 28.6635Z" fill="white"/>
<path d="M30.0908 38.7631H24.8545C24.623 38.7631 24.401 38.8524 24.2374 39.0113C24.0737 39.1703 23.9817 39.3858 23.9817 39.6106C23.9817 39.8353 24.0737 40.0509 24.2374 40.2098C24.401 40.3687 24.623 40.458 24.8545 40.458H30.0908C30.3222 40.458 30.5442 40.3687 30.7079 40.2098C30.8716 40.0509 30.9635 39.8353 30.9635 39.6106C30.9635 39.3858 30.8716 39.1703 30.7079 39.0113C30.5442 38.8524 30.3222 38.7631 30.0908 38.7631Z" fill="white"/>
<path d="M29.2181 41.3051H25.7272C25.4958 41.3051 25.2738 41.3944 25.1101 41.5533C24.9465 41.7122 24.8545 41.9278 24.8545 42.1526C24.8545 42.3773 24.9465 42.5929 25.1101 42.7518C25.2738 42.9107 25.4958 43 25.7272 43H29.2181C29.4496 43 29.6716 42.9107 29.8352 42.7518C29.9989 42.5929 30.0908 42.3773 30.0908 42.1526C30.0908 41.9278 29.9989 41.7122 29.8352 41.5533C29.6716 41.3944 29.4496 41.3051 29.2181 41.3051Z" fill="white"/>
<path fill-rule="evenodd" clip-rule="evenodd" d="M27.2727 11C27.5137 11 27.7091 11.2846 27.7091 11.6356V15.4491C27.7091 15.8002 27.5137 16.0847 27.2727 16.0847C27.0317 16.0847 26.8364 15.8002 26.8364 15.4491V11.6356C26.8364 11.2846 27.0317 11 27.2727 11Z" fill="white"/>
<path fill-rule="evenodd" clip-rule="evenodd" d="M38.5397 15.7559C38.7091 15.9175 38.6405 16.2451 38.3864 16.4875L35.6262 19.1214C35.3722 19.3638 35.0289 19.4293 34.8595 19.2677C34.6901 19.1061 34.7588 18.7785 35.0129 18.5361L37.773 15.9022C38.0271 15.6598 38.3704 15.5943 38.5397 15.7559Z" fill="white"/>
<path fill-rule="evenodd" clip-rule="evenodd" d="M16.1915 15.7559C16.0221 15.9175 16.0908 16.2451 16.3449 16.4875L19.105 19.1214C19.3591 19.3638 19.7023 19.4293 19.8717 19.2677C20.0411 19.1061 19.9724 18.7785 19.7184 18.5361L16.9582 15.9022C16.7042 15.6598 16.3609 15.5943 16.1915 15.7559Z" fill="white"/>
<path fill-rule="evenodd" clip-rule="evenodd" d="M37.6721 37.7717C37.8415 37.6101 37.7729 37.2825 37.5188 37.0401L34.7586 34.4062C34.5046 34.1638 34.1613 34.0983 33.9919 34.2599C33.8225 34.4215 33.8912 34.7491 34.1453 34.9915L36.9054 37.6254C37.1595 37.8678 37.5027 37.9333 37.6721 37.7717Z" fill="white"/>
<path fill-rule="evenodd" clip-rule="evenodd" d="M17.0591 37.7717C16.8897 37.6101 16.9584 37.2825 17.2125 37.0401L19.9726 34.4062C20.2267 34.1638 20.57 34.0983 20.7393 34.2599C20.9087 34.4215 20.8401 34.7491 20.586 34.9915L17.8258 37.6254C17.5718 37.8678 17.2285 37.9333 17.0591 37.7717Z" fill="white"/>
<path fill-rule="evenodd" clip-rule="evenodd" d="M42.5455 27.5254C42.5455 27.7594 42.2524 27.9491 41.8909 27.9491H37.9636C37.6021 27.9491 37.3091 27.7594 37.3091 27.5254C37.3091 27.2914 37.6021 27.1016 37.9636 27.1016H41.8909C42.2524 27.1016 42.5455 27.2914 42.5455 27.5254Z" fill="white"/>
<path fill-rule="evenodd" clip-rule="evenodd" d="M12 27.5254C12 27.7594 12.293 27.9491 12.6545 27.9491H16.5818C16.9433 27.9491 17.2364 27.7594 17.2364 27.5254C17.2364 27.2914 16.9433 27.1016 16.5818 27.1016H12.6545C12.293 27.1016 12 27.2914 12 27.5254Z" fill="white"/>
</svg>
