<svg width="24" height="24" viewBox="0 0 24 24" fill="none" xmlns="http://www.w3.org/2000/svg">
<path d="M4.77419 23.1998V17.0558H2.58065C1.16129 17.0558 0 15.9038 0 14.4958V3.3598C0 1.9518 1.16129 0.799805 2.58065 0.799805H21.4194C22.8387 0.799805 24 1.9518 24 3.3598V14.6238C24 16.0318 22.8387 17.1838 21.4194 17.1838H11.6129L4.77419 23.1998ZM2.58065 2.0798C1.80645 2.0798 1.29032 2.5918 1.29032 3.3598V14.6238C1.29032 15.2638 1.80645 15.9038 2.58065 15.9038H6.19355V20.3838L11.0968 15.9038H21.4194C22.0645 15.9038 22.7097 15.3918 22.7097 14.6238V3.3598C22.7097 2.7198 22.1935 2.0798 21.4194 2.0798H2.58065Z" fill="white"/>
</svg>
