<svg width="75" height="75" viewBox="0 0 75 75" fill="none" xmlns="http://www.w3.org/2000/svg">
<circle cx="37.5" cy="37.5" r="37.5" fill="#F1EDEE"/>
<path d="M55.7115 51.4294H21.4263C21.0474 51.4294 20.684 51.2789 20.4161 51.011C20.1482 50.7431 19.9977 50.3798 19.9977 50.0009C19.9977 49.622 20.1482 49.2586 20.4161 48.9907C20.684 48.7228 21.0474 48.5723 21.4263 48.5723H55.7115C56.0904 48.5723 56.4537 48.7228 56.7216 48.9907C56.9895 49.2586 57.14 49.622 57.14 50.0009C57.14 50.3798 56.9895 50.7431 56.7216 51.011C56.4537 51.2789 56.0904 51.4294 55.7115 51.4294Z" fill="#092B53"/>
<path d="M52.8546 55.7154H24.2836C23.9047 55.7154 23.5413 55.5649 23.2734 55.297C23.0055 55.0291 22.855 54.6657 22.855 54.2868C22.855 53.908 23.0055 53.5446 23.2734 53.2767C23.5413 53.0088 23.9047 52.8583 24.2836 52.8583H52.8546C53.2335 52.8583 53.5968 53.0088 53.8647 53.2767C54.1327 53.5446 54.2832 53.908 54.2832 54.2868C54.2832 54.6657 54.1327 55.0291 53.8647 55.297C53.5968 55.5649 53.2335 55.7154 52.8546 55.7154Z" fill="#092B53"/>
<path d="M18.5692 40.0022C17.7802 40.0022 17.1406 40.6418 17.1406 41.4308V44.2879C17.1406 45.0456 17.4416 45.7724 17.9775 46.3082C18.5133 46.844 19.24 47.145 19.9977 47.145H22.8548C23.6438 47.145 24.2834 46.5054 24.2834 45.7164C24.2817 44.2014 23.6792 42.749 22.6079 41.6777C21.5366 40.6064 20.0842 40.0039 18.5692 40.0022Z" fill="#092B53"/>
<path d="M58.5686 37.1438C59.3576 37.1438 59.9972 36.5042 59.9972 35.7152V32.8581C59.9972 32.0691 59.3576 31.4295 58.5686 31.4295C56.2962 31.4269 54.1175 30.5231 52.5107 28.9162C50.9038 27.3093 49.9999 25.1307 49.9973 22.8582C49.9973 22.0693 49.3577 21.4297 48.5688 21.4297H28.569C27.7801 21.4297 27.1405 22.0693 27.1405 22.8582C27.1379 25.1307 26.234 27.3093 24.6271 28.9162C23.0203 30.5231 20.8416 31.4269 18.5692 31.4295C17.7802 31.4295 17.1406 32.0691 17.1406 32.8581V35.7152C17.1406 36.5042 17.7802 37.1438 18.5692 37.1438C20.8416 37.1464 23.0203 38.0502 24.6271 39.6571C26.234 41.264 27.1379 43.4426 27.1405 45.7151C27.1405 46.504 27.7801 47.1436 28.569 47.1436H48.5688C49.3577 47.1436 49.9973 46.504 49.9973 45.7151C49.9999 43.4426 50.9038 41.264 52.5107 39.6571C54.1175 38.0502 56.2962 37.1464 58.5686 37.1438ZM38.5689 42.858C36.8737 42.858 35.2165 42.3553 33.8069 41.4134C32.3974 40.4716 31.2988 39.1329 30.65 37.5667C30.0013 36.0005 29.8316 34.2771 30.1623 32.6145C30.493 30.9518 31.3093 29.4245 32.5081 28.2258C33.7068 27.0271 35.234 26.2108 36.8967 25.88C38.5594 25.5493 40.2828 25.7191 41.849 26.3678C43.4152 27.0165 44.7539 28.1151 45.6957 29.5247C46.6375 30.9342 47.1402 32.5914 47.1402 34.2866C47.1376 36.5591 46.2337 38.7377 44.6269 40.3446C43.02 41.9515 40.8414 42.8554 38.5689 42.858Z" fill="#092B53"/>
<path d="M38.5688 40.0014C41.7247 40.0014 44.283 37.443 44.283 34.2872C44.283 31.1313 41.7247 28.573 38.5688 28.573C35.4129 28.573 32.8546 31.1313 32.8546 34.2872C32.8546 37.443 35.4129 40.0014 38.5688 40.0014Z" fill="#092B53"/>
<path d="M52.8542 45.7164C52.8542 46.5054 53.4938 47.145 54.2827 47.145H57.1398C57.8976 47.145 58.6243 46.844 59.1601 46.3082C59.6959 45.7724 59.9969 45.0456 59.9969 44.2879V41.4308C59.9969 40.6418 59.3573 40.0022 58.5684 40.0022C57.0534 40.0039 55.6009 40.6064 54.5296 41.6777C53.4584 42.749 52.8558 44.2014 52.8542 45.7164Z" fill="#092B53"/>
<path d="M58.5684 28.5724C59.3573 28.5724 59.9969 27.9329 59.9969 27.1439V24.2868C59.9969 23.529 59.6959 22.8023 59.1601 22.2665C58.6243 21.7307 57.8976 21.4297 57.1398 21.4297H54.2827C53.4938 21.4297 52.8542 22.0693 52.8542 22.8582C52.8558 24.3732 53.4584 25.8257 54.5296 26.897C55.6009 27.9682 57.0534 28.5708 58.5684 28.5724Z" fill="#092B53"/>
<path d="M24.2834 22.8582C24.2834 22.0693 23.6438 21.4297 22.8548 21.4297H19.9977C19.24 21.4297 18.5133 21.7307 17.9775 22.2665C17.4416 22.8023 17.1406 23.529 17.1406 24.2868V27.1439C17.1406 27.9329 17.7802 28.5724 18.5692 28.5724C20.0842 28.5708 21.5366 27.9682 22.6079 26.897C23.6792 25.8257 24.2817 24.3732 24.2834 22.8582Z" fill="#092B53"/>
</svg>
