<svg width="55" height="55" viewBox="0 0 55 55" fill="none" xmlns="http://www.w3.org/2000/svg">
<circle cx="27.5" cy="27.5" r="27.5" fill="#092B53"/>
<path d="M40.8556 37.7147H15.7131C15.4353 37.7147 15.1688 37.6043 14.9723 37.4078C14.7759 37.2114 14.6655 36.9449 14.6655 36.667C14.6655 36.3892 14.7759 36.1227 14.9723 35.9263C15.1688 35.7298 15.4353 35.6194 15.7131 35.6194H40.8556C41.1335 35.6194 41.3999 35.7298 41.5964 35.9263C41.7929 36.1227 41.9032 36.3892 41.9032 36.667C41.9032 36.9449 41.7929 37.2114 41.5964 37.4078C41.3999 37.6043 41.1335 37.7147 40.8556 37.7147Z" fill="white"/>
<path d="M38.7606 40.8577H17.8085C17.5306 40.8577 17.2642 40.7473 17.0677 40.5509C16.8712 40.3544 16.7609 40.0879 16.7609 39.8101C16.7609 39.5323 16.8712 39.2658 17.0677 39.0693C17.2642 38.8729 17.5306 38.7625 17.8085 38.7625H38.7606C39.0384 38.7625 39.3049 38.8729 39.5013 39.0693C39.6978 39.2658 39.8082 39.5323 39.8082 39.8101C39.8082 40.0879 39.6978 40.3544 39.5013 40.5509C39.3049 40.7473 39.0384 40.8577 38.7606 40.8577Z" fill="white"/>
<path d="M13.6179 29.3347C13.0393 29.3347 12.5703 29.8037 12.5703 30.3823V32.4775C12.5703 33.0332 12.7911 33.5661 13.184 33.9591C13.5769 34.352 14.1098 34.5727 14.6655 34.5727H16.7607C17.3393 34.5727 17.8083 34.1037 17.8083 33.5251C17.8071 32.4141 17.3652 31.349 16.5796 30.5634C15.7941 29.7778 14.7289 29.3359 13.6179 29.3347Z" fill="white"/>
<path d="M42.9508 27.2385C43.5294 27.2385 43.9984 26.7695 43.9984 26.1909V24.0957C43.9984 23.5171 43.5294 23.0481 42.9508 23.0481C41.2844 23.0462 39.6867 22.3833 38.5083 21.205C37.33 20.0266 36.6671 18.4289 36.6652 16.7624C36.6652 16.1839 36.1962 15.7148 35.6176 15.7148H20.9511C20.3726 15.7148 19.9035 16.1839 19.9035 16.7624C19.9016 18.4289 19.2388 20.0266 18.0604 21.205C16.8821 22.3833 15.2844 23.0462 13.6179 23.0481C13.0393 23.0481 12.5703 23.5171 12.5703 24.0957V26.1909C12.5703 26.7695 13.0393 27.2385 13.6179 27.2385C15.2844 27.2404 16.8821 27.9032 18.0604 29.0816C19.2388 30.26 19.9016 31.8577 19.9035 33.5241C19.9035 34.1027 20.3726 34.5717 20.9511 34.5717H35.6176C36.1962 34.5717 36.6652 34.1027 36.6652 33.5241C36.6671 31.8577 37.33 30.26 38.5083 29.0816C39.6867 27.9032 41.2844 27.2404 42.9508 27.2385ZM28.2844 31.4289C27.0412 31.4289 25.8259 31.0603 24.7923 30.3696C23.7586 29.6789 22.953 28.6972 22.4772 27.5487C22.0015 26.4001 21.877 25.1363 22.1195 23.917C22.3621 22.6977 22.9607 21.5777 23.8398 20.6987C24.7188 19.8196 25.8388 19.221 27.0581 18.9784C28.2774 18.7359 29.5412 18.8604 30.6898 19.3361C31.8383 19.8119 32.82 20.6175 33.5107 21.6512C34.2014 22.6848 34.57 23.9001 34.57 25.1433C34.5681 26.8097 33.9053 28.4074 32.7269 29.5858C31.5485 30.7642 29.9508 31.427 28.2844 31.4289Z" fill="white"/>
<path d="M28.2843 29.3341C30.5986 29.3341 32.4747 27.458 32.4747 25.1437C32.4747 22.8294 30.5986 20.9533 28.2843 20.9533C25.97 20.9533 24.0939 22.8294 24.0939 25.1437C24.0939 27.458 25.97 29.3341 28.2843 29.3341Z" fill="white"/>
<path d="M38.7602 33.5251C38.7602 34.1037 39.2293 34.5727 39.8078 34.5727H41.9031C42.4587 34.5727 42.9917 34.352 43.3846 33.9591C43.7775 33.5661 43.9983 33.0332 43.9983 32.4775V30.3823C43.9983 29.8037 43.5292 29.3347 42.9507 29.3347C41.8397 29.3359 40.7745 29.7778 39.9889 30.5634C39.2033 31.349 38.7615 32.4141 38.7602 33.5251Z" fill="white"/>
<path d="M42.9507 20.9529C43.5292 20.9529 43.9983 20.4838 43.9983 19.9053V17.8101C43.9983 17.2544 43.7775 16.7214 43.3846 16.3285C42.9917 15.9356 42.4587 15.7148 41.9031 15.7148H39.8078C39.2293 15.7148 38.7602 16.1839 38.7602 16.7624C38.7615 17.8734 39.2033 18.9386 39.9889 19.7242C40.7745 20.5098 41.8397 20.9517 42.9507 20.9529Z" fill="white"/>
<path d="M17.8083 16.7624C17.8083 16.1839 17.3393 15.7148 16.7607 15.7148H14.6655C14.1098 15.7148 13.5769 15.9356 13.184 16.3285C12.7911 16.7214 12.5703 17.2544 12.5703 17.8101V19.9053C12.5703 20.4838 13.0393 20.9529 13.6179 20.9529C14.7289 20.9517 15.7941 20.5098 16.5796 19.7242C17.3652 18.9386 17.8071 17.8734 17.8083 16.7624Z" fill="white"/>
</svg>
