<svg width="75" height="75" viewBox="0 0 75 75" fill="none" xmlns="http://www.w3.org/2000/svg">
<circle cx="37.5" cy="37.5" r="37.5" fill="#F1EDEE"/>
<path d="M37.2799 47.5227C37.2799 49.41 37.8702 51.2364 38.9486 52.7551H20.6315C19.1944 52.7551 18.2479 52.5182 17.6151 52.1999C17.0127 51.8969 16.5989 51.4734 16.2864 50.897C15.6216 49.6707 15.421 47.8049 15.4009 45.1444H37.2799V47.5227Z" fill="#092B53"/>
<path fill-rule="evenodd" clip-rule="evenodd" d="M39.1826 41.339H26.8152V20.6327L26.9156 20.6829C27.4513 20.9507 28.0818 20.9507 28.6174 20.6829L30.6197 19.6817L32.617 20.6822C33.1502 20.9493 33.7777 20.951 34.3123 20.6867L36.3472 19.6809L38.325 20.6795C38.8636 20.9514 39.4991 20.9518 40.038 20.6806L42.0197 19.6832L44.0132 20.6821C44.5471 20.9496 45.1756 20.951 45.7106 20.6858L47.7411 19.6794L49.7489 20.683C50.2845 20.9507 50.915 20.9507 51.4507 20.6828L51.55 20.6331L51.55 47.5227C51.55 48.9104 50.9987 50.2413 50.0175 51.2226C49.0362 52.2038 47.7054 52.7551 46.3176 52.7551C44.9299 52.7551 43.5991 52.2038 42.6178 51.2226C41.6365 50.2413 41.0853 48.9104 41.0853 47.5227V43.2417C41.0853 42.1909 40.2334 41.339 39.1826 41.339ZM36.3286 31.3478C35.2778 31.3478 34.4259 32.1996 34.4259 33.2505C34.4259 34.3013 35.2778 35.1532 36.3286 35.1532H47.7447C48.7955 35.1532 49.6474 34.3013 49.6474 33.2505C49.6474 32.1996 48.7955 31.3478 47.7447 31.3478H36.3286ZM28.7177 26.1167C28.7177 25.0659 29.5695 24.2141 30.6204 24.2141H47.7445C48.7953 24.2141 49.6472 25.0659 49.6472 26.1167C49.6472 27.1676 48.7953 28.0194 47.7445 28.0194H30.6204C29.5695 28.0194 28.7177 27.1676 28.7177 26.1167Z" fill="#092B53"/>
</svg>
