<svg width="75" height="75" viewBox="0 0 75 75" fill="none" xmlns="http://www.w3.org/2000/svg">
<circle cx="37.5" cy="37.5" r="37.5" fill="#F1EDEE"/>
<path d="M29.7899 27.7998C29.659 27.7885 29.5609 27.7828 29.4954 27.7828H27.0415V32.2743H29.4954C29.576 32.2743 29.6741 32.2686 29.7899 32.2572C29.9107 32.2459 30.0391 32.2203 30.175 32.1805C30.6381 32.0498 30.9754 31.7942 31.1868 31.4135C31.4032 31.0271 31.5115 30.5782 31.5115 30.0669C31.5115 29.5953 31.4108 29.1436 31.2094 28.7118C31.0081 28.2743 30.6633 27.993 30.175 27.868C30.0492 27.8282 29.9208 27.8055 29.7899 27.7998Z" fill="#092B53"/>
<path fill-rule="evenodd" clip-rule="evenodd" d="M48.0223 22.3782V50.6493C48.0237 51.8027 48.4035 52.9238 49.1035 53.8405C49.8035 54.7572 50.785 55.419 51.8973 55.7241C51.9173 55.7293 51.9349 55.7411 51.9476 55.7574C51.9602 55.7738 51.9671 55.7938 51.9671 55.8145C51.9672 55.8269 51.9649 55.8393 51.9602 55.8508C51.9555 55.8623 51.9485 55.8728 51.9397 55.8816C51.9309 55.8904 51.9204 55.8973 51.9089 55.902C51.8974 55.9067 51.8851 55.9091 51.8726 55.909H23.696C22.4754 55.909 21.3048 55.4241 20.4417 54.561C19.5786 53.6979 19.0938 52.5273 19.0938 51.3067V22.3782C19.0938 21.5063 19.4401 20.6702 20.0566 20.0537C20.6731 19.4372 21.5092 19.0908 22.3811 19.0908H44.735C45.1667 19.0908 45.5942 19.1758 45.993 19.3411C46.3918 19.5063 46.7542 19.7484 47.0595 20.0537C47.3647 20.3589 47.6069 20.7213 47.7721 21.1201C47.9373 21.519 48.0223 21.9465 48.0223 22.3782ZM41.4477 49.3343H25.7054C24.9978 49.3343 24.3905 48.7903 24.3551 48.0827C24.3466 47.9049 24.3742 47.7272 24.4363 47.5604C24.4985 47.3936 24.5938 47.2411 24.7166 47.1123C24.8394 46.9834 24.9871 46.8808 25.1507 46.8107C25.3143 46.7406 25.4904 46.7045 25.6684 46.7045H41.4107C42.1183 46.7045 42.7256 47.2485 42.7609 47.9561C42.7695 48.1339 42.7419 48.3116 42.6798 48.4784C42.6176 48.6452 42.5223 48.7976 42.3995 48.9265C42.2767 49.0554 42.129 49.1579 41.9654 49.2281C41.8018 49.2982 41.6256 49.3343 41.4477 49.3343ZM41.4477 44.0746H25.7054C24.9978 44.0746 24.3905 43.5305 24.3551 42.8229C24.3466 42.6451 24.3742 42.4675 24.4363 42.3007C24.4985 42.1339 24.5938 41.9814 24.7166 41.8525C24.8394 41.7237 24.9871 41.6211 25.1507 41.551C25.3143 41.4809 25.4904 41.4447 25.6684 41.4447H41.4107C42.1183 41.4447 42.7256 41.9888 42.7609 42.6964C42.7695 42.8742 42.7419 43.0518 42.6798 43.2186C42.6176 43.3854 42.5223 43.5379 42.3995 43.6668C42.2767 43.7956 42.129 43.8982 41.9654 43.9683C41.8018 44.0384 41.6256 44.0746 41.4477 44.0746ZM41.4477 38.8148H36.2249C35.5173 38.8148 34.91 38.2708 34.8746 37.5632C34.8661 37.3854 34.8937 37.2077 34.9558 37.0409C35.0179 36.8741 35.1133 36.7217 35.2361 36.5928C35.3589 36.4639 35.5065 36.3613 35.6702 36.2912C35.8338 36.2211 36.0099 36.185 36.1879 36.185H41.4107C42.1183 36.185 42.7256 36.729 42.7609 37.4366C42.7695 37.6144 42.7419 37.7921 42.6798 37.9589C42.6176 38.1257 42.5223 38.2782 42.3995 38.407C42.2767 38.5359 42.129 38.6385 41.9654 38.7086C41.8018 38.7787 41.6256 38.8148 41.4477 38.8148ZM41.4477 33.5551H36.2249C35.5173 33.5551 34.91 33.011 34.8746 32.3035C34.8661 32.1257 34.8937 31.948 34.9558 31.7812C35.0179 31.6144 35.1133 31.4619 35.2361 31.3331C35.3589 31.2042 35.5065 31.1016 35.6702 31.0315C35.8338 30.9614 36.0099 30.9253 36.1879 30.9252H41.4107C42.1183 30.9252 42.7256 31.4693 42.7609 32.1769C42.7695 32.3547 42.7419 32.5324 42.6798 32.6992C42.6176 32.866 42.5223 33.0184 42.3995 33.1473C42.2767 33.2761 42.129 33.3787 41.9654 33.4488C41.8018 33.5189 41.6256 33.5551 41.4477 33.5551ZM41.4477 28.2954H36.2249C35.5173 28.2954 34.91 27.7513 34.8746 27.0437C34.8661 26.8659 34.8937 26.6882 34.9558 26.5214C35.0179 26.3546 35.1133 26.2022 35.2361 26.0733C35.3589 25.9445 35.5065 25.8419 35.6702 25.7718C35.8338 25.7017 36.0099 25.6655 36.1879 25.6655H41.4107C42.1183 25.6655 42.7256 26.2095 42.7609 26.9171C42.7695 27.0949 42.7419 27.2726 42.6798 27.4394C42.6176 27.6062 42.5223 27.7587 42.3995 27.8875C42.2767 28.0164 42.129 28.119 41.9654 28.1891C41.8018 28.2592 41.6256 28.2953 41.4477 28.2954ZM25.0694 36.5697C24.674 36.5697 24.3535 36.2492 24.3535 35.8538C24.3535 35.4584 24.674 35.1379 25.0694 35.1379H25.4634V33.8169H25.1248C24.6988 33.8169 24.3535 33.4716 24.3535 33.0456C24.3535 32.6196 24.6988 32.2743 25.1248 32.2743H25.4634V26.9804C25.4634 26.4963 25.8559 26.1038 26.3401 26.1038H29.5559C29.6163 26.1038 29.722 26.1095 29.873 26.1209C30.029 26.1265 30.2002 26.1436 30.3864 26.172C31.3026 26.3311 31.9871 26.7686 32.4402 27.4845C32.8932 28.1947 33.1197 29.0413 33.1197 30.0243C33.1197 31.0186 32.8907 31.851 32.4326 32.5214C31.9746 33.1862 31.2925 33.5953 30.3864 33.7487C30.2002 33.7828 30.029 33.8027 29.873 33.8084C29.722 33.814 29.6163 33.8169 29.5559 33.8169H27.0415V35.1379H29.8819C30.2773 35.1379 30.5978 35.4584 30.5978 35.8538C30.5978 36.2492 30.2773 36.5697 29.8819 36.5697H27.0415V37.5875C27.0415 38.0233 26.6882 38.3765 26.2525 38.3765C25.8167 38.3765 25.4634 38.0233 25.4634 37.5875V36.5697H25.0694Z" fill="#092B53"/>
<path d="M50.6595 25.666H52.6171C53.4909 25.666 54.3289 26.0131 54.9468 26.631C55.5647 27.2489 55.9118 28.0869 55.9118 28.9607V50.6498C55.9118 51.3472 55.6348 52.0162 55.1416 52.5093C54.6484 53.0025 53.9794 53.2796 53.282 53.2796C52.5845 53.2796 51.9156 53.0025 51.4224 52.5093C50.9292 52.0162 50.6521 51.3472 50.6521 50.6498V25.6734L50.6543 25.6681L50.6595 25.666Z" fill="#092B53"/>
</svg>
