<svg width="55" height="55" viewBox="0 0 55 55" fill="none" xmlns="http://www.w3.org/2000/svg">
<circle cx="27.5" cy="27.5" r="27.5" fill="#092B53"/>
<path d="M13 36H16.5012V27.489C16.5012 26.6822 16.7184 26.0272 17.1529 25.524C17.5958 25.0121 18.1794 24.7562 18.9035 24.7562C19.6616 24.7562 20.2537 25.0164 20.6796 25.537C21.1141 26.0489 21.3313 26.7689 21.3313 27.6973V36H24.8069V27.489C24.8069 26.6822 25.0242 26.0272 25.4586 25.524C25.9016 25.0121 26.4851 24.7562 27.2092 24.7562C27.9674 24.7562 28.5594 25.0164 28.9854 25.537C29.4198 26.0489 29.637 26.7689 29.637 27.6973V36H33.1127V26.7603C33.1127 25.2247 32.708 23.984 31.8988 23.0384C31.098 22.084 29.9096 21.6068 28.3337 21.6068C27.4477 21.6068 26.6342 21.8021 25.8931 22.1925C25.1519 22.5829 24.5599 23.1164 24.1169 23.7932C23.7591 23.1338 23.248 22.6046 22.5836 22.2055C21.9191 21.8064 21.0928 21.6068 20.1046 21.6068C19.2698 21.6068 18.5031 21.776 17.8046 22.1144C17.106 22.4441 16.5267 22.8995 16.0667 23.4808V21.9452H13V36Z" fill="white"/>
<path d="M35.9243 28.9726H44V26.8904H39.3104L41.8788 24.574C42.3388 24.1662 42.7265 23.8018 43.0416 23.4808C43.3568 23.1598 43.5954 22.8084 43.7572 22.4267C43.9191 22.045 44 21.5635 44 20.9822C44 20.1927 43.8254 19.4986 43.4761 18.9C43.1353 18.3014 42.6668 17.8372 42.0705 17.5075C41.4827 17.1692 40.814 17 40.0644 17C38.8291 17 37.8282 17.3514 37.0615 18.0541C36.3033 18.7568 35.9243 19.7155 35.9243 20.9301H38.1732C38.1476 20.4356 38.3095 20.0062 38.6588 19.6418C39.0166 19.2687 39.468 19.0822 40.0132 19.0822C40.5414 19.0822 40.9631 19.26 41.2783 19.6158C41.5935 19.9628 41.7511 20.4096 41.7511 20.9562C41.7511 21.1991 41.6744 21.4637 41.5211 21.75C41.3677 22.0363 41.1122 22.3443 40.7544 22.674L35.9243 27.0466V28.9726Z" fill="white"/>
</svg>
