<svg width="60" height="50" viewBox="0 0 60 50" fill="none" xmlns="http://www.w3.org/2000/svg">
<path d="M54 43.7496H5.99997C5.46954 43.7496 4.96083 43.5301 4.58576 43.1394C4.21069 42.7487 3.99997 42.2188 3.99997 41.6663C3.99997 41.1138 4.21069 40.5839 4.58576 40.1932C4.96083 39.8025 5.46954 39.583 5.99997 39.583H54C54.5304 39.583 55.0391 39.8025 55.4142 40.1932C55.7893 40.5839 56 41.1138 56 41.6663C56 42.2188 55.7893 42.7487 55.4142 43.1394C55.0391 43.5301 54.5304 43.7496 54 43.7496Z" fill="white"/>
<path d="M50.0003 50H10.0003C9.46984 50 8.96113 49.7805 8.58606 49.3898C8.21098 48.9991 8.00027 48.4692 8.00027 47.9167C8.00027 47.3642 8.21098 46.8343 8.58606 46.4436C8.96113 46.0529 9.46984 45.8334 10.0003 45.8334H50.0003C50.5307 45.8334 51.0394 46.0529 51.4145 46.4436C51.7896 46.8343 52.0003 47.3642 52.0003 47.9167C52.0003 48.4692 51.7896 48.9991 51.4145 49.3898C51.0394 49.7805 50.5307 50 50.0003 50Z" fill="white"/>
<path d="M2 27.085H0V33.3349C0 34.4399 0.421427 35.4997 1.17157 36.2811C1.92172 37.0625 2.93913 37.5015 4 37.5015H10V35.4182C9.99768 33.2088 9.15408 31.0906 7.6543 29.5284C6.15451 27.9661 4.12102 27.0874 2 27.085Z" fill="white"/>
<path d="M58 22.9163H60V14.5831H58C54.8185 14.5793 51.7684 13.2612 49.5187 10.9178C47.2691 8.57448 46.0036 5.3973 46 2.0833V0H14V2.0833C13.9964 5.3973 12.7309 8.57448 10.4813 10.9178C8.23161 13.2612 5.18148 14.5793 2 14.5831H0V22.9163C0.625 22.9163 1.2925 22.9163 2 22.9163C5.18148 22.9201 8.23161 24.2383 10.4813 26.5816C12.7309 28.925 13.9964 32.1022 14 35.4162V37.4995H46V35.4162C46.0036 32.1022 47.2691 28.925 49.5187 26.5816C51.7684 24.2383 54.8185 22.9201 58 22.9163ZM30 31.2496C27.6266 31.2496 25.3065 30.5165 23.3332 29.143C21.3598 27.7695 19.8217 25.8173 18.9134 23.5332C18.0052 21.2492 17.7676 18.7359 18.2306 16.3111C18.6936 13.8864 19.8365 11.6592 21.5147 9.91103C23.1929 8.16289 25.3311 6.9724 27.6589 6.49009C29.9867 6.00778 32.3995 6.25532 34.5922 7.2014C36.7849 8.14749 38.6591 9.74962 39.9776 11.8052C41.2962 13.8608 42 16.2775 42 18.7497C41.9964 22.0637 40.7309 25.2409 38.4813 27.5843C36.2316 29.9276 33.1815 31.2458 30 31.2496Z" fill="white"/>
<path d="M29.9999 27.0837C34.4181 27.0837 37.9999 23.3528 37.9999 18.7505C37.9999 14.1482 34.4181 10.4173 29.9999 10.4173C25.5816 10.4173 21.9999 14.1482 21.9999 18.7505C21.9999 23.3528 25.5816 27.0837 29.9999 27.0837Z" fill="white"/>
<path d="M49.9997 35.4182V37.5015H55.9997C57.0605 37.5015 58.0779 37.0625 58.8281 36.2811C59.5782 35.4997 59.9997 34.4399 59.9997 33.3349V27.085H57.9997C55.8786 27.0874 53.8451 27.9661 52.3454 29.5284C50.8456 31.0906 50.002 33.2088 49.9997 35.4182Z" fill="white"/>
<path d="M57.9997 10.4165H59.9997V4.16661C59.9997 3.06155 59.5782 2.00176 58.8281 1.22037C58.0779 0.438981 57.0605 0 55.9997 0H49.9997V2.0833C50.002 4.29267 50.8456 6.41085 52.3454 7.97311C53.8451 9.53537 55.8786 10.4141 57.9997 10.4165Z" fill="white"/>
<path d="M10 2.0833V0H4C2.93913 0 1.92172 0.438981 1.17157 1.22037C0.421427 2.00176 0 3.06155 0 4.16661V10.4165H2C4.12102 10.4141 6.15451 9.53537 7.6543 7.97311C9.15408 6.41085 9.99768 4.29267 10 2.0833Z" fill="white"/>
</svg>
