<svg width="55" height="60" viewBox="0 0 55 60" fill="none" xmlns="http://www.w3.org/2000/svg">
<path fill-rule="evenodd" clip-rule="evenodd" d="M27.8599 12.3319C32.09 12.3319 36.046 13.9784 38.9993 16.9687C40.4592 18.4458 41.6151 20.2007 42.4003 22.1322C43.1855 24.0636 43.5845 26.1333 43.5741 28.2215C43.5741 32.9497 41.9123 37.0602 38.7675 40.0961L38.2829 40.5612C36.5359 42.2334 34.1456 44.5213 34.1456 46.4946V48.8781C34.1456 49.2995 33.98 49.7037 33.6853 50.0017C33.3906 50.2997 32.9909 50.4671 32.5742 50.4671H23.1457C22.7289 50.4671 22.3292 50.2997 22.0345 50.0017C21.7398 49.7037 21.5742 49.2995 21.5742 48.8781V46.4946C21.5742 44.4727 19.1552 42.1816 17.3864 40.5092L16.9582 40.103C13.9008 37.1823 12.1457 32.8514 12.1457 28.2215C12.1408 26.1335 12.5439 24.065 13.3319 22.1349C14.1199 20.2049 15.2772 18.4512 16.7373 16.9748C18.1975 15.4983 19.9318 14.328 21.8405 13.5313C23.7493 12.7345 25.7949 12.3269 27.8599 12.3319ZM33.36 33.1191C33.36 31.7958 32.9618 30.6985 32.1653 29.827C31.7596 29.3752 31.3238 29.0121 30.8579 28.7377C30.3921 28.4634 29.6633 28.0922 28.6715 27.6242L27.86 27.2369C27.334 26.9787 26.9283 26.7609 26.6428 26.5834C26.3573 26.3897 26.1469 26.1557 26.0116 25.8814C25.8914 25.6554 25.8313 25.3569 25.8313 24.9857C25.8313 24.4855 25.9741 24.082 26.2596 23.7754C26.4399 23.5495 26.6653 23.372 26.9358 23.2429C27.2063 23.1138 27.4918 23.0492 27.7924 23.0492C28.4836 23.0492 29.0622 23.4123 29.528 24.1385C29.7234 24.5581 29.821 24.9696 29.821 25.373L33.067 25.3488C33.0519 24.7517 32.9618 24.2111 32.7965 23.727C32.6462 23.2267 32.4208 22.7345 32.1202 22.2504C31.4741 21.2499 30.5649 20.556 29.3928 20.1687V17.8933H26.3272V20.1202C25.4556 20.3462 24.7042 20.7577 24.0731 21.3548C23.6223 21.8066 23.2616 22.3714 22.9911 23.0492C22.7206 23.7109 22.5854 24.3725 22.5854 25.0342C22.5854 25.5021 22.653 25.9863 22.7883 26.4865C22.9385 26.9707 23.1264 27.3822 23.3518 27.7211C23.8477 28.5118 24.584 29.1896 25.5608 29.7544C25.8764 29.9642 26.4474 30.2385 27.2739 30.5774C28.2056 30.9647 28.8818 31.3036 29.3026 31.5941C29.6182 31.82 29.8286 32.0379 29.9338 32.2477C30.054 32.4575 30.1141 32.7157 30.1141 33.0223C30.1141 33.345 30.054 33.6274 29.9338 33.8695C29.8286 34.0954 29.6558 34.2971 29.4153 34.4747C29.2049 34.636 28.9495 34.7571 28.6489 34.8377C28.3634 34.9184 28.0854 34.9588 27.8149 34.9588C27.4092 34.9588 27.0335 34.8458 26.6879 34.6199C26.3422 34.3778 26.0492 34.0551 25.8088 33.6516C25.7036 33.4903 25.6209 33.2805 25.5608 33.0223C25.5007 32.7479 25.4706 32.522 25.4706 32.3445H22.36C22.36 33.458 22.6305 34.4747 23.1715 35.3945C23.5021 36.0077 23.9379 36.5322 24.4788 36.9679C25.0348 37.3875 25.651 37.686 26.3272 37.8635V40.139H29.3928V37.912C30.0089 37.7829 30.5273 37.5973 30.9481 37.3552C31.6844 36.9518 32.2705 36.3547 32.7063 35.5639C33.1421 34.7571 33.36 33.9421 33.36 33.1191Z" fill="white"/>
<path d="M32.5742 52.0558H23.1457C22.7289 52.0558 22.3292 52.2233 22.0345 52.5212C21.7398 52.8192 21.5743 53.2234 21.5743 53.6448C21.5743 54.0662 21.7398 54.4704 22.0345 54.7684C22.3292 55.0664 22.7289 55.2338 23.1457 55.2338H32.5742C32.9909 55.2338 33.3906 55.0664 33.6853 54.7684C33.98 54.4704 34.1456 54.0662 34.1456 53.6448C34.1456 53.2234 33.98 52.8192 33.6853 52.5212C33.3906 52.2233 32.9909 52.0558 32.5742 52.0558Z" fill="white"/>
<path d="M31.0029 56.8221H24.7172C24.3004 56.8221 23.9007 56.9895 23.6061 57.2875C23.3114 57.5855 23.1458 57.9896 23.1458 58.411C23.1458 58.8325 23.3114 59.2366 23.6061 59.5346C23.9007 59.8326 24.3004 60 24.7172 60H31.0029C31.4196 60 31.8193 59.8326 32.114 59.5346C32.4087 59.2366 32.5743 58.8325 32.5743 58.411C32.5743 57.9896 32.4087 57.5855 32.114 57.2875C31.8193 56.9895 31.4196 56.8221 31.0029 56.8221Z" fill="white"/>
<path fill-rule="evenodd" clip-rule="evenodd" d="M27.5 0C27.9339 -1.88478e-08 28.2857 0.533557 28.2857 1.19173V8.34214C28.2857 9.00031 27.9339 9.53387 27.5 9.53387C27.0661 9.53387 26.7143 9.00031 26.7143 8.34214V1.19173C26.7143 0.533557 27.0661 1.88478e-08 27.5 0Z" fill="white"/>
<path fill-rule="evenodd" clip-rule="evenodd" d="M47.7873 8.91734C48.0923 9.22039 47.9687 9.83456 47.5112 10.2891L42.5413 15.2276C42.0838 15.6822 41.4657 15.805 41.1608 15.502C40.8558 15.1989 40.9794 14.5847 41.4369 14.1302L46.4068 9.1917C46.8643 8.73713 47.4823 8.61429 47.7873 8.91734Z" fill="white"/>
<path fill-rule="evenodd" clip-rule="evenodd" d="M7.54721 8.91734C7.24223 9.22039 7.36585 9.83456 7.82332 10.2891L12.7933 15.2276C13.2507 15.6822 13.8688 15.805 14.1738 15.502C14.4788 15.1989 14.3552 14.5847 13.8977 14.1302L8.92775 9.1917C8.47028 8.73713 7.85219 8.61429 7.54721 8.91734Z" fill="white"/>
<path fill-rule="evenodd" clip-rule="evenodd" d="M46.2251 50.1969C46.5301 49.8938 46.4065 49.2797 45.949 48.8251L40.9791 43.8866C40.5216 43.4321 39.9035 43.3092 39.5985 43.6123C39.2936 43.9153 39.4172 44.5295 39.8746 44.9841L44.8446 49.9225C45.302 50.3771 45.9201 50.4999 46.2251 50.1969Z" fill="white"/>
<path fill-rule="evenodd" clip-rule="evenodd" d="M9.10943 50.1969C8.80445 49.8938 8.92807 49.2797 9.38554 48.8251L14.3555 43.8866C14.8129 43.4321 15.431 43.3092 15.736 43.6123C16.041 43.9153 15.9174 44.5295 15.4599 44.9841L10.49 49.9225C10.0325 50.3771 9.41441 50.4999 9.10943 50.1969Z" fill="white"/>
<path fill-rule="evenodd" clip-rule="evenodd" d="M55 30.9851C55 31.4239 54.4723 31.7796 53.8214 31.7796H46.75C46.0991 31.7796 45.5714 31.4239 45.5714 30.9851C45.5714 30.5463 46.0991 30.1906 46.75 30.1906H53.8214C54.4723 30.1906 55 30.5463 55 30.9851Z" fill="white"/>
<path fill-rule="evenodd" clip-rule="evenodd" d="M0 30.9851C0 31.4239 0.527664 31.7796 1.17857 31.7796H8.25C8.90091 31.7796 9.42857 31.4239 9.42857 30.9851C9.42857 30.5463 8.90091 30.1906 8.25 30.1906H1.17857C0.527664 30.1906 0 30.5463 0 30.9851Z" fill="white"/>
</svg>
