<svg width="52" height="52" viewBox="0 0 52 52" fill="none" xmlns="http://www.w3.org/2000/svg">
<path d="M48.8966 3.08345C46.1027 0.305517 41.5568 0.305517 38.7629 3.08345C38.0627 3.77981 37.5263 4.59543 37.1698 5.48351C34.361 3.31033 30.2875 3.50449 27.7073 6.07C26.3509 7.41868 25.6039 9.21252 25.604 11.121C25.604 13.0296 26.351 14.8234 27.7073 16.172C28.4511 16.9116 29.3197 17.4523 30.2459 17.798L1.43199 46.4985C0.855989 47.0715 0.855989 48.004 1.43208 48.5768L3.3427 50.5742C3.91411 51.1423 4.83692 51.1419 5.40774 50.5732L9.84148 45.9638L13.4949 49.5965C13.7805 49.8805 14.1538 50.0224 14.527 50.0224C14.9031 50.0224 15.2794 49.8781 15.5655 49.59C16.1356 49.016 16.1326 48.0885 15.5591 47.5182L14.5521 46.5169L16.3553 44.7239C16.3586 44.7273 16.3613 44.731 16.3647 44.7343L17.3847 45.7485C17.6703 46.0325 18.0434 46.1743 18.4167 46.1743C18.793 46.1743 19.1692 46.03 19.4553 45.7419C20.0253 45.168 20.0224 44.2405 19.4488 43.6701L15.7985 40.0405L34.1793 21.8116C34.5357 22.6868 35.0678 23.4905 35.7594 24.1781C37.1563 25.567 38.9912 26.2615 40.8262 26.2615C42.6611 26.2615 44.4961 25.567 45.893 24.1781C47.2494 22.8294 47.9964 21.0356 47.9963 19.1271C47.9963 17.5242 47.4676 16.0034 46.4954 14.758C47.37 14.4112 48.1897 13.8883 48.8967 13.1854C50.2531 11.8367 51 10.0429 51 8.13438C50.9999 6.22597 50.2529 4.43213 48.8966 3.08345ZM28.5322 11.1211C28.5321 9.99864 28.9723 8.94296 29.7714 8.14835C30.5993 7.32511 31.6866 6.91355 32.7742 6.91355C33.8614 6.91355 34.9491 7.32521 35.7768 8.14825C36.5759 8.94287 37.016 9.99854 37.016 11.121C37.0159 12.2434 36.5759 13.2992 35.7768 14.0937C34.1211 15.74 31.4271 15.74 29.7714 14.0937C28.9724 13.2993 28.5322 12.2435 28.5322 11.1211ZM43.8288 22.1C42.173 23.7462 39.4791 23.7462 37.8233 22.1C37.0243 21.3054 36.5842 20.2497 36.5842 19.1273C36.5842 18.0049 37.0243 16.9491 37.8233 16.1546C38.6513 15.3314 39.7386 14.9199 40.8261 14.9199C41.9136 14.9199 43.001 15.3314 43.8288 16.1546C44.6278 16.9491 45.0679 18.0049 45.0679 19.1273C45.0679 20.2496 44.6278 21.3054 43.8288 22.1ZM46.8324 11.1072C45.1768 12.7534 42.4827 12.7534 40.827 11.1072C40.028 10.3125 39.5878 9.25686 39.5878 8.13448C39.5878 7.01209 40.028 5.95632 40.827 5.1617C41.6549 4.33847 42.7422 3.927 43.8298 3.927C44.917 3.927 46.0047 4.33866 46.8325 5.1617C47.6316 5.95632 48.0717 7.012 48.0717 8.13448C48.0716 9.25686 47.6315 10.3126 46.8324 11.1072Z" fill="white" stroke="white"/>
</svg>
