<svg width="45" height="40" viewBox="0 0 45 40" fill="none" xmlns="http://www.w3.org/2000/svg">
<g clip-path="url(#clip0_459_1178)">
<path d="M45 17.445C44.8591 18.2092 44.7065 18.9853 44.5656 19.7495C43.9082 23.248 40.6796 25.5883 37.228 25.0629C37.0989 25.039 36.958 25.0629 36.8171 25.1584C37.909 25.2778 39.0008 25.4331 39.9517 26.0062C40.9027 26.5793 41.8067 27.2241 42.7811 27.8689C41.8302 29.1704 41.1375 30.5913 39.8578 31.5346C37.5685 33.242 34.563 33.2659 32.1445 31.5943C31.9919 31.4868 31.8158 31.4032 31.6514 31.3077C31.6045 31.3674 31.5575 31.4271 31.5106 31.4868C34.0934 32.4659 35.1265 34.7346 36.1479 37.0868C35.8779 37.2301 35.6079 37.3972 35.3261 37.5166C34.3165 37.9465 33.342 38.5196 32.2972 38.7704C29.4326 39.439 26.6032 38.1256 25.0887 35.5584C25.0417 35.4868 24.9948 35.4032 24.9361 35.3077C24.8304 35.3674 24.7365 35.4151 24.5956 35.4868C25.664 36.8002 26.2275 38.2808 26.1923 40.0002C25.3118 40.0002 24.4547 40.0002 23.5742 40.0002C23.5273 38.9614 23.2572 38.0062 22.5176 37.1943C21.7545 37.9704 21.508 38.9375 21.4375 40.0122C20.5687 40.0122 19.7117 40.0122 18.8195 40.0122C18.7842 38.2928 19.3478 36.8241 20.4044 35.5107C20.3457 35.4629 20.2987 35.4151 20.2518 35.3913C20.2048 35.3554 20.1461 35.3435 20.0757 35.3077C19.3478 36.645 18.3264 37.6719 16.9645 38.3047C15.0744 39.1763 13.1725 39.2002 11.2823 38.3166C10.4722 37.9346 9.68563 37.5166 8.81685 37.0868C9.30994 36.1196 9.75607 35.1644 10.2726 34.2331C10.8009 33.2898 11.5758 32.5614 12.4446 31.9166C12.3506 31.9525 12.245 31.9883 12.1511 32.036C9.15732 33.6241 5.65875 32.7883 3.68641 29.9943C3.20506 29.3137 2.7472 28.6211 2.23063 27.8689C3.16984 27.248 4.07383 26.6032 5.01304 26.0181C5.97574 25.4211 7.07931 25.2898 8.19463 25.2301C8.19463 25.1823 8.18289 25.1226 8.18289 25.0749C8.05374 25.0629 7.93634 25.039 7.8072 25.051C4.08557 25.5644 0.892252 23.1047 0.352205 19.3077C0.246543 18.5913 0.117402 17.8749 0 17.1465C2.30107 16.6808 4.56692 16.1316 6.77407 17.5166C6.87973 17.1823 6.85625 17.039 6.51578 16.9793C3.41638 16.3823 1.36186 13.5644 1.6671 10.3405C1.73754 9.55246 1.83146 8.77634 1.92538 7.94052C4.06209 8.13157 6.17532 8.19127 7.78372 9.92261C7.81894 9.88679 7.85416 9.86291 7.88938 9.82709C7.84242 9.73157 7.81894 9.61216 7.73676 9.55246C5.38873 7.74948 4.77824 4.29873 6.551 1.6838C6.90321 1.15843 7.22019 0.609177 7.60762 -0.0117188C8.58205 0.680819 9.60344 1.26589 10.4487 2.05395C12.3741 3.86888 12.6911 6.80619 11.2588 9.12261C10.5427 10.2689 10.0026 11.4748 9.79129 12.8122C9.45082 14.9853 9.4156 17.1704 9.55648 19.3554C9.67389 21.2301 10.1083 23.0211 10.9536 24.7047C12.0571 26.8898 13.7712 28.5017 15.8022 29.7435C17.622 30.854 19.5004 31.8569 21.3436 32.9077C21.7428 33.1346 22.1184 33.5644 22.5059 33.5644C22.8933 33.5644 23.269 33.1346 23.6681 32.9077C25.4527 31.8928 27.2724 30.9256 29.0334 29.8629C31.0879 28.6211 32.8372 27.0331 33.976 24.848C34.9504 22.9853 35.3966 20.9793 35.4787 18.9017C35.5609 16.7883 35.5609 14.6748 35.15 12.5853C34.927 11.4151 34.5043 10.3405 33.8469 9.34948C33.2011 8.38231 32.8372 7.30768 32.8607 6.12559C32.8842 4.17933 33.659 2.61515 35.2205 1.48082C35.9131 0.979326 36.6528 0.549475 37.4041 0.0718633C38.3433 1.61216 39.4821 3.02112 39.4587 4.96739C39.4469 6.80619 38.7425 8.31067 37.3454 9.49276C37.2398 9.57634 37.1693 9.69574 37.1458 9.86291C37.9794 9.17037 38.8599 8.5853 39.9048 8.37037C40.9262 8.15545 41.9828 8.05992 43.0511 7.9047C43.3094 9.88679 43.7203 11.7972 42.7811 13.648C41.8771 15.439 40.4566 16.5495 38.5194 16.9793C38.179 17.051 38.179 17.051 38.2142 17.445C38.7542 17.242 39.2825 16.9913 39.8343 16.836C41.0671 16.4778 42.2998 16.6211 43.5325 16.8599C44.0138 16.9554 44.5069 17.0151 45 17.0868C45 17.2062 45 17.3256 45 17.445Z" fill="#D5D3D3"/>
</g>
<defs>
<clipPath id="clip0_459_1178">
<rect width="45" height="40" fill="white"/>
</clipPath>
</defs>
</svg>
